<svg xmlns="http://www.w3.org/2000/svg" viewBox="0 0 120 120">
  <defs>
    <style>
      .cls-1, .cls-3, .cls-5, .cls-7, .cls-8 {
        fill: none;
      }

      .cls-2 {
        fill: #fff;
      }

      .cls-3 {
        stroke: #333;
      }

      .cls-3, .cls-5, .cls-7, .cls-8 {
        stroke-linejoin: round;
      }

      .cls-3, .cls-5, .cls-8 {
        stroke-width: 2px;
      }

      .cls-4 {
        fill: #ffc92a;
      }

      .cls-5, .cls-7, .cls-8 {
        stroke: #2b2e34;
      }

      .cls-6 {
        fill: #333;
      }

      .cls-7, .cls-8 {
        stroke-linecap: round;
      }
    </style>
  </defs>
  <g id="Gruppe_6606" data-name="Gruppe 6606" transform="translate(-43 -219)">
    <rect id="Rechteck_8430" data-name="Rechteck 8430" class="cls-1" width="120" height="120" transform="translate(43 219)"/>
    <g id="Gruppe_6596" data-name="Gruppe 6596" transform="translate(17 11)">
      <path id="Pfad_4059" data-name="Pfad 4059" class="cls-2" d="M2.7,0-4.2,62.8,74.5,55.35,75.081,0Z" transform="translate(46.338 240.642)"/>
      <path id="Pfad_4060" data-name="Pfad 4060" class="cls-3" d="M30.768,21.639l-78.7,7.449,6.9-62.8H31.351Z" transform="translate(90.067 274.354)"/>
      <path id="Pfad_4061" data-name="Pfad 4061" class="cls-1" d="M0,29.944H91.679V-46.649H0Z" transform="translate(40.902 277.213)"/>
      <path id="Pfad_4062" data-name="Pfad 4062" class="cls-2" d="M0,0,4.967,65.284l77.347-7.449L72.382,0Z" transform="translate(49.037 240.642)"/>
      <path id="Pfad_4063" data-name="Pfad 4063" class="cls-3" d="M32.181,22.61-45.166,30.06l-4.967-65.284H22.249Z" transform="translate(99.17 275.866)"/>
      <path id="Pfad_4064" data-name="Pfad 4064" class="cls-1" d="M0,29.944H91.679V-46.649H0Z" transform="translate(40.902 277.213)"/>
      <path id="Pfad_4065" data-name="Pfad 4065" class="cls-4" d="M29.382,6.314l-73.807,1.57L-45.773-9.836H26.609Z" transform="translate(94.81 250.479)"/>
      <path id="Pfad_4066" data-name="Pfad 4066" class="cls-5" d="M29.382,6.314l-73.807,1.57L-45.773-9.836H26.609Z" transform="translate(94.81 250.479)"/>
      <path id="Pfad_4067" data-name="Pfad 4067" class="cls-6" d="M1.708,7.7A2.318,2.318,0,0,1-.58,5.7L-2.638-9.366a2.288,2.288,0,0,1,.45-1.709A2.29,2.29,0,0,1-.66-11.968a2.157,2.157,0,0,1,.315-.023,2.32,2.32,0,0,1,2.286,2L4,5.073a2.308,2.308,0,0,1-1.98,2.6,2.145,2.145,0,0,1-.312.023" transform="translate(59.752 243.374)"/>
      <path id="Pfad_4068" data-name="Pfad 4068" class="cls-2" d="M1.227.642A1.5,1.5,0,0,1,2.7,1.931L4.758,17a1.49,1.49,0,0,1-1.276,1.676,1.415,1.415,0,0,1-.2.015A1.491,1.491,0,0,1,1.8,17.4L-.254,2.333A1.49,1.49,0,0,1,1.021.657,1.456,1.456,0,0,1,1.227.642M1.227-1a3.1,3.1,0,0,0-.443.033A3.1,3.1,0,0,0-1.271.238a3.107,3.107,0,0,0-.611,2.318L.177,17.621a3.141,3.141,0,0,0,3.1,2.708,3.006,3.006,0,0,0,.437-.031,3.132,3.132,0,0,0,2.67-3.525L4.327,1.709A3.142,3.142,0,0,0,1.227-1" transform="translate(58.181 231.563)"/>
      <path id="Pfad_4069" data-name="Pfad 4069" class="cls-6" d="M1.607,7.17A2.318,2.318,0,0,1-.681,5.16l-1.8-13.718a2.3,2.3,0,0,1,.456-1.708,2.3,2.3,0,0,1,1.534-.883,2.02,2.02,0,0,1,.3-.021A2.32,2.32,0,0,1,2.1-9.162L3.9,4.558a2.314,2.314,0,0,1-1.99,2.591,2.083,2.083,0,0,1-.3.021" transform="translate(83.746 243.646)"/>
      <path id="Pfad_4070" data-name="Pfad 4070" class="cls-2" d="M1.226.642A1.506,1.506,0,0,1,2.7,1.939L4.5,15.655a1.488,1.488,0,0,1-1.282,1.671,1.583,1.583,0,0,1-.2.013,1.491,1.491,0,0,1-1.474-1.3L-.254,2.327A1.489,1.489,0,0,1,1.029.655a1.588,1.588,0,0,1,.2-.013M1.226-1A3.085,3.085,0,0,0,.8-.97,3.1,3.1,0,0,0-1.262.227,3.117,3.117,0,0,0-1.882,2.54l1.8,13.718a3.143,3.143,0,0,0,3.1,2.724,3.061,3.061,0,0,0,.406-.028,3.131,3.131,0,0,0,2.7-3.512L4.327,1.724A3.141,3.141,0,0,0,1.226-1" transform="translate(82.329 232.656)"/>
      <path id="Pfad_4071" data-name="Pfad 4071" class="cls-6" d="M1.508,6.99A2.306,2.306,0,0,1-.784,4.944L-2.333-8.313a2.3,2.3,0,0,1,.479-1.7A2.3,2.3,0,0,1-.3-10.876l.25-.013A2.318,2.318,0,0,1,2.258-8.846L3.8,4.412a2.287,2.287,0,0,1-.483,1.7,2.3,2.3,0,0,1-1.545.862,2.607,2.607,0,0,1-.269.015" transform="translate(107.534 243.368)"/>
      <path id="Pfad_4072" data-name="Pfad 4072" class="cls-2" d="M1.218.642a1.5,1.5,0,0,1,1.5,1.317L4.26,15.217a1.487,1.487,0,0,1-1.307,1.652,1.546,1.546,0,0,1-.174.01A1.488,1.488,0,0,1,1.3,15.562L-.245,2.3A1.489,1.489,0,0,1,1.062.65c.053,0,.105-.008.156-.008M1.218-1A3.04,3.04,0,0,0,.9-.984,3.123,3.123,0,0,0-1.223.19,3.1,3.1,0,0,0-1.875,2.5L-.329,15.752a3.129,3.129,0,0,0,3.108,2.768c.115,0,.23-.007.345-.018a3.131,3.131,0,0,0,2.767-3.479L4.344,1.768A3.137,3.137,0,0,0,1.218-1" transform="translate(106.262 232.658)"/>
      <path id="Pfad_4073" data-name="Pfad 4073" class="cls-1" d="M0,29.944H91.679V-46.649H0Z" transform="translate(40.902 277.213)"/>
      <path id="Pfad_4074" data-name="Pfad 4074" class="cls-4" d="M17.279,4.115,18.7,14.11l-43.726,3.547L-26.919-3.749,26.556-6.411l1.537,9.817Z" transform="translate(89.134 276.502)"/>
      <path id="Pfad_4075" data-name="Pfad 4075" class="cls-3" d="M17.279,4.115,18.7,14.11l-43.726,3.547L-26.919-3.749,26.556-6.411l1.537,9.817Z" transform="translate(89.134 276.502)"/>
      <path id="Pfad_4076" data-name="Pfad 4076" class="cls-3" d="M0,1.387,54.066-2.16" transform="translate(63.161 282.069)"/>
      <path id="Pfad_4077" data-name="Pfad 4077" class="cls-3" d="M1.109,7.814-1.728-12.173" transform="translate(106.723 282.797)"/>
      <path id="Pfad_4078" data-name="Pfad 4078" class="cls-3" d="M.99,7.745l-2.533-19.81" transform="translate(95.911 283.754)"/>
      <path id="Pfad_4079" data-name="Pfad 4079" class="cls-3" d="M.924,8.091-1.44-12.6" transform="translate(85.046 284.294)"/>
      <path id="Pfad_4080" data-name="Pfad 4080" class="cls-3" d="M.832,8.23-1.3-12.821" transform="translate(74.206 285.042)"/>
      <path id="Pfad_4081" data-name="Pfad 4081" class="cls-6" d="M0,.626l1.5,13.93L16.664,13.1,14.248-.975Z" transform="translate(114.686 285.381)"/>
      <path id="Pfad_4082" data-name="Pfad 4082" class="cls-7" d="M5.57,0-8.678,1.6l1.5,13.93,15.166-1.46Z" transform="translate(123.364 284.406)"/>
      <path id="Pfad_4083" data-name="Pfad 4083" class="cls-1" d="M0,29.944H91.679V-46.649H0Z" transform="translate(40.902 277.213)"/>
      <path id="Pfad_4084" data-name="Pfad 4084" class="cls-2" d="M5.57,0-8.678,1.6l1.5,13.93Z" transform="translate(123.364 284.406)"/>
      <path id="Pfad_4085" data-name="Pfad 4085" class="cls-8" d="M5.57,0-8.678,1.6l1.5,13.93Z" transform="translate(123.364 284.406)"/>
    </g>
  </g>
</svg>
