<svg xmlns="http://www.w3.org/2000/svg" viewBox="0 0 120 120">
  <defs>
    <style>
      .cls-1 {
        fill: none;
      }

      .cls-2 {
        fill: #fff;
      }

      .cls-3 {
        fill: #333;
      }

      .cls-4 {
        fill: #ffce2d;
      }
    </style>
  </defs>
  <g id="Gruppe_6615" data-name="Gruppe 6615" transform="translate(-760 -44)">
    <rect id="Rechteck_8423" data-name="Rechteck 8423" class="cls-1" width="120" height="120" transform="translate(760 44)"/>
    <g id="Gruppe_6580" data-name="Gruppe 6580" transform="translate(17 11)">
      <path id="Pfad_2751" data-name="Pfad 2751" class="cls-2" d="M1.8,80.13,42.868,97.6V45.266L1.8,27.8Z" transform="translate(760.414 38.947)"/>
      <path id="Pfad_2752" data-name="Pfad 2752" class="cls-3" d="M42.314,98.194a1.148,1.148,0,0,1-.472-.067l-41-17.533A1.266,1.266,0,0,1,.1,79.515V27.253a1.076,1.076,0,0,1,.539-.944,1.04,1.04,0,0,1,1.079-.067l41,17.466a1.266,1.266,0,0,1,.742,1.079v52.33a1.076,1.076,0,0,1-.539.944A1.969,1.969,0,0,1,42.314,98.194ZM2.46,78.773,41.168,95.295V45.527L2.46,29.006Z" transform="translate(760.967 39.495)"/>
      <path id="Pfad_2753" data-name="Pfad 2753" class="cls-4" d="M62.7,45.266V97.6l41-17.466V27.8Z" transform="translate(740.582 38.947)"/>
      <path id="Pfad_2754" data-name="Pfad 2754" class="cls-3" d="M62.114,98.175a1.3,1.3,0,0,1-.674-.2,1.162,1.162,0,0,1-.539-.944V44.7a1.156,1.156,0,0,1,.742-1.079L102.71,26.155a1.206,1.206,0,0,1,1.079.067,1.162,1.162,0,0,1,.539.944V79.5a1.156,1.156,0,0,1-.742,1.079L62.518,98.108A.855.855,0,0,1,62.114,98.175ZM63.26,45.509V95.276l38.708-16.522V28.987Z" transform="translate(741.168 39.514)"/>
      <path id="Pfad_2755" data-name="Pfad 2755" class="cls-2" d="M1.7,19.233,42.835,36.766l41-17.533L42.768,1.7Z" transform="translate(760.446 47.447)"/>
      <path id="Pfad_2756" data-name="Pfad 2756" class="cls-3" d="M42.282,37.343a1.148,1.148,0,0,1-.472-.067L.742,19.742a1.156,1.156,0,0,1,0-2.158l41-17.533a1.149,1.149,0,0,1,.944,0L83.755,17.584a1.266,1.266,0,0,1,.742,1.079,1.156,1.156,0,0,1-.742,1.079L42.686,37.275A.855.855,0,0,1,42.282,37.343Zm-38.1-18.68,38.1,16.252L80.315,18.663,42.214,2.411Z" transform="translate(761 48.017)"/>
      <path id="Pfad_2757" data-name="Pfad 2757" class="cls-3" d="M57.239,94.366H55.35V78.452l-12.408,5.26-.337-.877-.337.877L29.725,78.384v15.51H27.837V77.575L15.361,72.248V88.23H13.473V71.438L1.2,66.178l.742-1.753,11.6,4.923V54.512L1.2,49.32l.742-1.753,11.6,4.923V35.9h1.888V53.366L27.9,58.693V41.565h1.888V59.5l12.88,5.53L55.418,59.57V42.037h1.888V58.761l11.8-5.058V35.9H71V52.894l12.341-5.26.742,1.753L71,54.984V69.82l12.341-5.26.742,1.753L71,71.91V88.3H69.107V72.585l-11.8,5.058V94.366ZM29.725,76.361l12.88,5.53,12.813-5.462V61.593L43.01,66.853l-.337-.877-.337.877L29.793,61.525V76.361ZM57.239,60.784V75.619l11.8-5.058V55.726ZM15.361,70.225l12.476,5.327V60.716L15.361,55.389Z" transform="translate(760.609 36.309)"/>
      <path id="Pfad_2758" data-name="Pfad 2758" class="cls-3" d="M42.908,37.115l-.27-.674-.27.674L1.3,19.582l.27-.674-.27-.674L42.368.7l.27.607L42.908.7,83.976,18.233l-.27.674.27.674ZM30.971,30.574l11.666,4.99,11.734-4.99-11.666-4.99Zm-13.689-5.8,11.666,4.99,11.666-4.99-11.666-4.99Zm27.379,0,11.666,4.99,11.666-4.99-11.666-4.99ZM30.971,18.907,42.638,23.9l11.734-4.99-11.666-4.99Zm27.379,0L70.016,23.9l11.666-4.99-11.666-4.99Zm-54.757,0L15.259,23.9l11.666-4.99-11.666-4.99Zm13.689-5.8L28.948,18.1l11.666-4.99L28.948,8.118Zm27.379,0L56.327,18.1l11.666-4.99L56.327,8.118ZM30.971,7.241l11.666,4.99,11.734-4.99L42.638,2.251Z" transform="translate(760.577 47.772)"/>
    </g>
  </g>
</svg>
