<svg xmlns="http://www.w3.org/2000/svg" viewBox="0 0 120 120">
  <defs>
    <style>
      .cls-1, .cls-3 {
        fill: none;
      }

      .cls-2 {
        fill: #fff;
      }

      .cls-2, .cls-3, .cls-4 {
        stroke: #333;
        stroke-width: 2px;
      }

      .cls-4 {
        fill: #ffc92a;
      }
    </style>
  </defs>
  <g id="Gruppe_6617" data-name="Gruppe 6617" transform="translate(-401 -44)">
    <rect id="Rechteck_8419" data-name="Rechteck 8419" class="cls-1" width="120" height="120" transform="translate(401 44)"/>
    <g id="Gruppe_6593" data-name="Gruppe 6593" transform="translate(17 11)">
      <path id="Pfad_4022" data-name="Pfad 4022" class="cls-2" d="M12.575,0,7.937,4.44,4.645,1.147,1.1,4.692A5.611,5.611,0,0,1-.308,10.28,5.617,5.617,0,0,1-5.9,11.69s-13.756,13.757-13.8,13.8a7.925,7.925,0,0,0,0,11.2,7.921,7.921,0,0,0,11.2,0c.069-.074,13.79-13.819,13.79-13.819a5.613,5.613,0,0,1,7-6.993l3.545-3.546-3.3-3.295,4.439-4.637" transform="translate(423.039 92.891)"/>
      <path id="Pfad_4023" data-name="Pfad 4023" class="cls-3" d="M12.575,0,7.937,4.44,4.645,1.147,1.1,4.692A5.611,5.611,0,0,1-.308,10.28,5.617,5.617,0,0,1-5.9,11.69s-13.756,13.757-13.8,13.8a7.925,7.925,0,0,0,0,11.2,7.921,7.921,0,0,0,11.2,0c.069-.074,13.79-13.819,13.79-13.819a5.613,5.613,0,0,1,7-6.993l3.545-3.546-3.3-3.295,4.439-4.637" transform="translate(423.039 92.891)"/>
      <path id="Pfad_4024" data-name="Pfad 4024" class="cls-2" d="M1.523,9.869C8.229,3.055,13.8-2.572,14.008-2.779c.87-.87,1.692-1.566,2.786-1.237l7.685-8.539-4.725-4.723L11.216-9.593c.333,1.1-.365,1.914-1.237,2.786C9.772-6.6,4.144-1.03-2.667,5.677" transform="translate(452.293 73.416)"/>
      <path id="Pfad_4025" data-name="Pfad 4025" class="cls-3" d="M1.523,9.869C8.229,3.055,13.8-2.572,14.008-2.779c.87-.87,1.692-1.566,2.786-1.237l7.685-8.539-4.725-4.723L11.216-9.593c.333,1.1-.365,1.914-1.237,2.786C9.772-6.6,4.144-1.03-2.667,5.677" transform="translate(452.293 73.416)"/>
      <path id="Pfad_4026" data-name="Pfad 4026" class="cls-4" d="M10.889,1.2,7.6-2.1,4.051,1.449a5.615,5.615,0,0,1-1.408,5.59A5.62,5.62,0,0,1-2.944,8.447l-13.8,13.8a7.917,7.917,0,0,0,0,11.2,7.917,7.917,0,0,0,11.2,0c.071-.074,13.79-13.819,13.79-13.819a5.612,5.612,0,0,1,7-6.993l3.545-3.546L15.493,5.8" transform="translate(420.087 96.134)"/>
      <path id="Pfad_4027" data-name="Pfad 4027" class="cls-3" d="M10.889,1.2,7.6-2.1,4.051,1.449a5.615,5.615,0,0,1-1.408,5.59A5.62,5.62,0,0,1-2.944,8.447l-13.8,13.8a7.917,7.917,0,0,0,0,11.2,7.917,7.917,0,0,0,11.2,0c.071-.074,13.79-13.819,13.79-13.819a5.612,5.612,0,0,1,7-6.993l3.545-3.546L15.493,5.8" transform="translate(420.087 96.134)"/>
      <path id="Pfad_4028" data-name="Pfad 4028" class="cls-2" d="M25.272,21.97l5.1,5.1,1.552-1.549A14.787,14.787,0,0,0,11.241,9.583L-22.107-23.764a11.355,11.355,0,0,0-2.8-11.407,11.3,11.3,0,0,0-9.865-3.139l-1.189,1.186,3.9,3.9a4.917,4.917,0,0,1,0,6.948,4.919,4.919,0,0,1-6.948,0l-3.9-3.9-1.186,1.188a11.285,11.285,0,0,0,3.141,9.865,11.339,11.339,0,0,0,11.583,2.739L3.877,16.862A14.784,14.784,0,0,0,19.732,37.708l1.557-1.554-5.1-5.1a6.423,6.423,0,0,1,9.083-9.085" transform="translate(455.421 93.183)"/>
      <path id="Pfad_4029" data-name="Pfad 4029" class="cls-3" d="M25.272,21.97l5.1,5.1,1.552-1.549A14.787,14.787,0,0,0,11.241,9.583L-22.107-23.764a11.355,11.355,0,0,0-2.8-11.407,11.3,11.3,0,0,0-9.865-3.139l-1.189,1.186,3.9,3.9a4.917,4.917,0,0,1,0,6.948,4.919,4.919,0,0,1-6.948,0l-3.9-3.9-1.186,1.188a11.285,11.285,0,0,0,3.141,9.865,11.339,11.339,0,0,0,11.583,2.739L3.877,16.862A14.784,14.784,0,0,0,19.732,37.708l1.557-1.554-5.1-5.1a6.423,6.423,0,0,1,9.083-9.085Z" transform="translate(455.421 93.183)"/>
    </g>
  </g>
</svg>
